<?xml version="1.0" encoding="utf-8"?>
<!-- Generator: Adobe Illustrator 28.2.0, SVG Export Plug-In . SVG Version: 6.00 Build 0)  -->
<svg version="1.1" id="Layer_1" xmlns="http://www.w3.org/2000/svg" xmlns:xlink="http://www.w3.org/1999/xlink" x="0px" y="0px"
	 viewBox="0 0 1500 1500" style="enable-background:new 0 0 1500 1500;" xml:space="preserve">
<style type="text/css">
	.st0{fill:#2B2B2B;}
	.st1{fill:#FFFFFF;}
</style>
<g>
	<g>
		<circle class="st0" cx="750" cy="750" r="415.45"/>
	</g>
	<g>
		<circle class="st1" cx="750" cy="750" r="404.95"/>
	</g>
	<g>
		<circle class="st0" cx="750" cy="750" r="268.45"/>
	</g>
	<g>
		<path class="st0" d="M533.18,553.35l-60.97-66.36l18.27-16.79c4.48-4.11,8.81-7.19,12.99-9.21c4.18-2.03,8.35-2.61,12.52-1.75
			c4.16,0.86,8.38,3.61,12.64,8.25c2.51,2.73,4.52,5.36,6.04,7.89c1.52,2.53,2.41,5.12,2.66,7.75c0.26,2.64-0.23,5.48-1.46,8.52
			l38.6,23.76l-15.16,13.93l-34.62-23.04l-4.18,3.84l27.33,29.74L533.18,553.35z M512.76,501.7l4.1-3.76
			c2.08-1.91,3.35-3.76,3.82-5.55c0.47-1.79,0.3-3.6-0.52-5.42c-0.82-1.82-2.13-3.71-3.93-5.68c-2.61-2.84-5.16-4.57-7.65-5.21
			c-2.49-0.63-5.13,0.33-7.92,2.89l-4.75,4.37L512.76,501.7z"/>
		<path class="st0" d="M606.98,497.46c-6,3.41-11.25,5.09-15.75,5.04c-4.5-0.04-8.5-1.57-12-4.57c-3.5-3-6.8-7.25-9.91-12.73
			l-30.71-54.09l17.13-9.72l32.19,56.7c0.92,1.61,1.96,3.15,3.13,4.62c1.17,1.47,2.49,2.47,3.95,3.01c1.46,0.54,3.09,0.29,4.89-0.73
			c1.87-1.06,2.93-2.35,3.19-3.86c0.25-1.51,0.03-3.13-0.66-4.87c-0.69-1.74-1.49-3.42-2.41-5.03l-32.19-56.7l17.22-9.78
			l30.71,54.09c3.11,5.48,5.05,10.51,5.8,15.07c0.75,4.56,0.01,8.78-2.22,12.65C617.1,490.41,612.98,494.05,606.98,497.46z"/>
		<path class="st0" d="M665.11,472.43c-5.97,1.77-11.05,1.93-15.24,0.46c-4.19-1.46-7.68-4.24-10.48-8.32
			c-2.8-4.08-5.07-9.07-6.83-14.98l-8.62-29.01c-1.82-6.11-2.61-11.64-2.37-16.59c0.23-4.94,1.89-9.21,4.96-12.79
			c3.07-3.58,7.88-6.34,14.43-8.29c6.4-1.9,11.75-2.33,16.04-1.28c4.29,1.05,7.78,3.22,10.47,6.52c2.68,3.31,4.77,7.48,6.27,12.53
			l1.65,5.55l-18.67,5.54l-2.09-7.04c-0.55-1.85-1.18-3.52-1.89-5.01c-0.71-1.49-1.66-2.58-2.83-3.28c-1.18-0.7-2.76-0.75-4.75-0.16
			c-2.06,0.61-3.39,1.61-3.99,2.98c-0.6,1.38-0.78,2.92-0.54,4.63c0.24,1.71,0.62,3.45,1.15,5.23l11.88,40
			c0.57,1.92,1.3,3.66,2.19,5.21c0.89,1.56,2,2.7,3.34,3.42c1.34,0.73,2.97,0.8,4.89,0.23c1.99-0.59,3.36-1.58,4.11-2.96
			c0.75-1.38,1.08-2.99,1-4.82c-0.08-1.83-0.41-3.71-0.98-5.63l-3.01-10.13l-7.79,2.31l-3.33-11.2l24.96-7.41l13.3,44.8l-12.59,3.74
			l-3.19-6.83c-0.42,2.76-1.5,5.26-3.22,7.51C671.63,469.62,668.88,471.31,665.11,472.43z"/>
		<path class="st0" d="M729.27,460.55c-6.22,0.39-11.2-0.6-14.96-2.96c-3.75-2.36-6.54-5.85-8.35-10.46
			c-1.81-4.61-2.91-9.98-3.3-16.12l-1.9-30.2c-0.4-6.37,0.07-11.93,1.4-16.7c1.33-4.77,3.9-8.55,7.7-11.35
			c3.8-2.8,9.1-4.42,15.92-4.85c6.66-0.42,11.97,0.36,15.92,2.34c3.95,1.98,6.86,4.88,8.74,8.7c1.87,3.82,2.98,8.36,3.31,13.62
			l0.36,5.77l-19.43,1.22l-0.46-7.33c-0.12-1.92-0.36-3.69-0.72-5.31c-0.36-1.61-1.04-2.89-2.02-3.83
			c-0.99-0.94-2.52-1.35-4.59-1.22c-2.15,0.13-3.67,0.81-4.56,2.01c-0.89,1.21-1.41,2.67-1.56,4.39c-0.15,1.72-0.17,3.5-0.05,5.35
			l2.61,41.64c0.13,2,0.45,3.86,0.96,5.57c0.52,1.72,1.34,3.08,2.49,4.08c1.14,1.01,2.71,1.45,4.71,1.32
			c2.07-0.13,3.63-0.79,4.67-1.97c1.04-1.18,1.73-2.67,2.06-4.48c0.33-1.8,0.44-3.71,0.31-5.7l-0.66-10.55l-8.11,0.51l-0.73-11.66
			l25.98-1.63l2.93,46.64l-13.1,0.82l-1.58-7.37c-1.03,2.59-2.64,4.79-4.83,6.6C736.25,459.28,733.2,460.3,729.27,460.55z"/>
		<path class="st0" d="M779.08,459.75l9.95-74.66l-13.45-1.79l1.96-14.67l46.65,6.22l-1.95,14.67l-13.34-1.78l-9.95,74.66
			L779.08,459.75z"/>
		<path class="st0" d="M822.86,467.07l27.85-85.71l38.52,12.51l-4.2,12.91l-19.58-6.36l-6.91,21.27l14.92,4.85l-4.26,13.12
			l-14.92-4.85l-8.32,25.61l19.79,6.43l-4.16,12.8L822.86,467.07z"/>
		<path class="st0" d="M893.75,497.87c-5.94-3.36-10.02-7.1-12.25-11.22c-2.23-4.12-2.95-8.53-2.16-13.24
			c0.79-4.71,2.68-9.71,5.68-15l16.01-28.27c3.07-5.42,6.42-9.68,10.05-12.78c3.63-3.1,7.78-4.74,12.44-4.91
			c4.66-0.17,9.96,1.42,15.9,4.78c5.81,3.29,9.8,6.81,11.99,10.56c2.18,3.75,2.98,7.72,2.4,11.91c-0.58,4.19-2.13,8.51-4.65,12.96
			l-3.84,6.78l-16.94-9.59l4.44-7.84c0.88-1.55,1.64-3.08,2.28-4.59c0.64-1.51,0.84-2.95,0.6-4.33c-0.25-1.37-1.3-2.59-3.17-3.65
			c-1.81-1.02-3.42-1.3-4.84-0.82c-1.42,0.47-2.65,1.37-3.7,2.7c-1.05,1.32-2.03,2.79-2.94,4.41l-20.89,36.89
			c-0.99,1.74-1.75,3.42-2.28,5.04c-0.53,1.62-0.61,3.11-0.23,4.47s1.4,2.52,3.08,3.47c1.81,1.02,3.36,1.29,4.67,0.79
			c1.3-0.5,2.47-1.43,3.51-2.81c1.03-1.37,1.99-2.84,2.87-4.39l4.66-8.23l16.94,9.59l-3.84,6.78c-2.52,4.45-5.44,8.06-8.76,10.83
			c-3.32,2.77-7.18,4.25-11.59,4.43C904.77,502.77,899.62,501.2,893.75,497.87z"/>
		<path class="st0" d="M926.94,516.77l60.86-66.47l14.69,13.45l-24.65,26.91l10.34,9.47l24.65-26.91l14.69,13.45l-60.86,66.47
			l-14.69-13.45l26.6-29.05l-10.34-9.47l-26.6,29.05L926.94,516.77z"/>
	</g>
	<g>
		<path class="st0" d="M387.18,722.48l54.03,2.07l-0.45,11.74c-0.15,4-0.89,7.15-2.2,9.44c-1.31,2.29-3.21,3.89-5.69,4.79
			c-2.48,0.91-5.55,1.29-9.2,1.15l-19.88-0.76c-3.82-0.15-7.03-0.77-9.61-1.87c-2.59-1.1-4.51-2.8-5.78-5.1
			c-1.27-2.3-1.83-5.34-1.69-9.12L387.18,722.48z M392.3,730.23l-0.16,4.27c-0.11,2.76,0.35,4.73,1.38,5.93
			c1.02,1.2,2.55,1.96,4.59,2.28c2.04,0.32,4.5,0.54,7.39,0.65l17.54,0.67c2.8,0.11,5.08,0.02,6.83-0.27
			c1.75-0.29,3.04-1.02,3.89-2.19c0.85-1.17,1.32-3.05,1.42-5.62l0.16-4.07L392.3,730.23z"/>
		<path class="st0" d="M386.73,776.26c-0.28-3.91,0.28-6.96,1.69-9.16c1.4-2.2,3.49-3.77,6.26-4.73c2.76-0.96,6.03-1.57,9.81-1.84
			l35.76-2.55l0.51,7.19l-36.09,2.57c-2.31,0.16-4.41,0.47-6.29,0.92c-1.89,0.45-3.35,1.23-4.38,2.35
			c-1.04,1.12-1.48,2.73-1.33,4.81c0.15,2.13,0.82,3.67,2,4.61c1.18,0.94,2.74,1.5,4.67,1.68c1.93,0.17,4.05,0.18,6.36,0.02
			l36.09-2.57l0.51,7.12l-35.76,2.55c-3.77,0.27-7.1,0.13-9.97-0.43c-2.87-0.55-5.16-1.81-6.86-3.76
			C388,783.09,387.01,780.16,386.73,776.26z"/>
		<path class="st0" d="M390.01,803.04l53.19-9.75l1.96,10.7c0.65,3.55,0.72,6.56,0.2,9.06c-0.52,2.49-1.71,4.49-3.59,5.98
			c-1.88,1.5-4.5,2.56-7.87,3.17c-2.06,0.38-3.97,0.5-5.73,0.37c-1.77-0.13-3.32-0.57-4.65-1.32c-1.34-0.75-2.41-1.87-3.23-3.35
			l-25.28,12.44l-1.31-7.16l23.68-11.53l-1.06-5.78l-24.95,4.57L390.01,803.04z M421.64,804.91l0.52,2.82
			c0.38,2.1,0.96,3.76,1.73,4.98c0.77,1.22,1.84,2.01,3.22,2.39c1.38,0.38,3.21,0.36,5.49-0.05c3.11-0.57,5.25-1.55,6.42-2.94
			c1.17-1.39,1.45-3.77,0.83-7.14l-0.6-3.28L421.64,804.91z"/>
		<path class="st0" d="M396.96,838.63l55.11-4.31l2.06,6.98l-48.59,26.39l-2.02-6.85l12.36-6.23l-3.12-10.56l-13.8,1.36
			L396.96,838.63z M418.23,843.48l2.55,8.64l22.08-11.26L418.23,843.48z"/>
		<path class="st0" d="M408.98,877.1l49.94-20.74l4.76,11.47c0.94,2.26,1.51,4.32,1.71,6.19c0.2,1.87,0.01,3.57-0.55,5.11
			c-0.57,1.54-1.53,2.9-2.89,4.09c-1.36,1.19-3.11,2.23-5.25,3.12c-2.06,0.85-3.94,1.33-5.65,1.44c-1.71,0.11-3.22-0.18-4.52-0.87
			c-1.3-0.69-2.41-1.81-3.34-3.35c0.38,2.2,0.29,4.15-0.29,5.83c-0.58,1.68-1.6,3.18-3.05,4.48c-1.46,1.3-3.38,2.45-5.76,3.44
			c-2.14,0.89-4.19,1.45-6.16,1.69c-1.97,0.24-3.79,0.09-5.46-0.44c-1.67-0.53-3.18-1.47-4.53-2.82c-1.35-1.34-2.49-3.12-3.41-5.34
			L408.98,877.1z M416.87,881.99l1.94,4.69c1.3,3.12,2.89,4.91,4.79,5.35c1.89,0.44,4.46-0.01,7.71-1.36
			c2.1-0.87,3.74-1.88,4.93-3.02c1.19-1.14,1.89-2.47,2.1-3.98c0.22-1.51-0.1-3.29-0.96-5.35l-1.71-4.13L416.87,881.99z
			 M440.97,871.98l1.72,4.13c0.82,1.97,1.74,3.4,2.75,4.28c1.01,0.88,2.23,1.29,3.65,1.23c1.42-0.06,3.12-0.5,5.09-1.32
			c2.3-0.96,3.82-2,4.56-3.12c0.74-1.13,0.93-2.48,0.58-4.07c-0.35-1.59-1.02-3.58-2.01-5.96l-0.69-1.66L440.97,871.98z"/>
		<path class="st0" d="M424.89,913.02l48.07-24.76l3.39,6.59l-48.07,24.76L424.89,913.02z"/>
		<path class="st0" d="M434.1,930.38l46.25-28.01l3.91,6.45l-41.63,25.21l7.16,11.82l-4.62,2.8L434.1,930.38z"/>
		<path class="st0" d="M450.4,956.11l44.21-31.13l4.27,6.06l-44.21,31.13L450.4,956.11z"/>
		<path class="st0" d="M465.69,976.71l37.57-30.61l-5.78-7.09l4.35-3.54l16.15,19.82l-4.35,3.54l-5.61-6.88l-37.57,30.61
			L465.69,976.71z"/>
		<path class="st0" d="M488.16,1002.31l13.62-13.38l16.76-32.85l4.91,5l-12.81,24.2l24.33-12.49l4.96,5.05l-33.09,16.24
			l-13.62,13.38L488.16,1002.31z"/>
		<path class="st0" d="M538.49,1010.83l4.95-6.21l5.58,4.45l-4.95,6.21L538.49,1010.83z"/>
		<path class="st0" d="M549.66,1053.75l28.17-46.16l9.29,5.67c3.08,1.88,5.37,3.84,6.89,5.88c1.51,2.05,2.21,4.27,2.07,6.66
			c-0.13,2.4-1.09,5.06-2.88,7.98c-1.09,1.79-2.27,3.29-3.54,4.52c-1.27,1.23-2.63,2.09-4.08,2.59c-1.45,0.5-3,0.56-4.64,0.18
			l-7.56,27.14l-6.21-3.79l7.17-25.34l-5.01-3.06l-13.21,21.65L549.66,1053.75z M572.13,1031.41l2.45,1.5
			c1.82,1.11,3.44,1.79,4.86,2.03c1.42,0.24,2.73-0.03,3.93-0.81c1.2-0.78,2.41-2.15,3.61-4.13c1.65-2.7,2.34-4.95,2.08-6.75
			c-0.26-1.8-1.85-3.59-4.77-5.38l-2.85-1.74L572.13,1031.41z"/>
		<path class="st0" d="M583.29,1073.34l23.56-48.67l18.87,9.13l-2.44,5.05l-12.08-5.85l-7.8,16.1l9.79,4.74l-2.33,4.81l-9.79-4.74
			l-8.64,17.85l12.2,5.91l-2.36,4.87L583.29,1073.34z"/>
		<path class="st0" d="M611.56,1086.43l19.34-50.5l7.04,2.7l-17.4,45.45l12.9,4.94l-1.93,5.05L611.56,1086.43z"/>
		<path class="st0" d="M640.22,1096.74l15.78-51.72l7.09,2.16l-15.78,51.72L640.22,1096.74z"/>
		<path class="st0" d="M656.49,1101.78l22.87-50.33l7.11,1.57l-0.38,55.29l-6.98-1.54l0.52-13.83l-10.76-2.38l-5.48,12.74
			L656.49,1101.78z M671.02,1085.51l8.8,1.94l0.82-24.77L671.02,1085.51z"/>
		<path class="st0" d="M695.98,1109.85l6.01-53.74l12.34,1.38c2.43,0.27,4.51,0.77,6.25,1.5c1.73,0.73,3.13,1.72,4.2,2.96
			c1.07,1.24,1.8,2.74,2.18,4.51c0.38,1.77,0.45,3.8,0.19,6.1c-0.25,2.21-0.74,4.09-1.47,5.65c-0.73,1.55-1.72,2.73-2.95,3.53
			c-1.23,0.8-2.75,1.24-4.55,1.3c2.11,0.73,3.77,1.75,4.96,3.07c1.2,1.32,2.01,2.94,2.45,4.84c0.43,1.91,0.51,4.14,0.22,6.71
			c-0.26,2.3-0.76,4.37-1.5,6.22c-0.74,1.84-1.75,3.36-3.03,4.56c-1.28,1.2-2.83,2.07-4.66,2.6c-1.83,0.53-3.94,0.67-6.32,0.4
			L695.98,1109.85z M704.07,1105.32l5.04,0.56c3.36,0.38,5.69-0.16,7-1.6c1.3-1.44,2.15-3.91,2.54-7.41
			c0.25-2.26,0.17-4.18-0.26-5.77c-0.43-1.59-1.25-2.85-2.47-3.77c-1.22-0.92-2.93-1.5-5.14-1.75l-4.45-0.5L704.07,1105.32z
			 M706.97,1079.38l4.45,0.5c2.12,0.24,3.81,0.12,5.08-0.34c1.26-0.46,2.21-1.33,2.84-2.6c0.64-1.27,1.07-2.97,1.31-5.09
			c0.28-2.48,0.1-4.31-0.53-5.5c-0.63-1.19-1.72-2.02-3.28-2.48c-1.56-0.46-3.62-0.84-6.19-1.13l-1.79-0.2L706.97,1079.38z"/>
		<path class="st0" d="M735.06,1113.32l1.65-54.05l7.41,0.23l-1.65,54.05L735.06,1113.32z"/>
		<path class="st0" d="M754.71,1113.68l-2.01-54.04l7.54-0.28l1.81,48.63l13.81-0.51l0.2,5.4L754.71,1113.68z"/>
		<path class="st0" d="M785.07,1111.95l-5.7-53.77l7.37-0.78l5.7,53.77L785.07,1111.95z"/>
		<path class="st0" d="M810.51,1108.6l-8.49-47.72l-9,1.6l-0.98-5.52l25.17-4.48l0.98,5.52l-8.74,1.55l8.49,47.72L810.51,1108.6z"/>
		<path class="st0" d="M843.86,1101.38l-5.1-18.4l-20.6-30.59l6.75-1.87l14.95,22.94l0.88-27.33l6.82-1.89l-1.85,36.81l5.1,18.4
			L843.86,1101.38z"/>
		<path class="st0" d="M875.72,1061.47l-3.04-7.34l6.6-2.74l3.04,7.34L875.72,1061.47z"/>
		<path class="st0" d="M918.31,1072.5l-26.22-47.29l18.28-10.13l2.62,4.73l-11.68,6.47l8.74,15.76l9.05-5.02l2.59,4.67l-9.05,5.02
			l12.27,22.13L918.31,1072.5z"/>
		<path class="st0" d="M956.56,1050c-3.22,2.22-6.14,3.29-8.74,3.19c-2.61-0.09-5.02-1.09-7.25-2.99c-2.23-1.9-4.41-4.4-6.56-7.52
			l-20.35-29.51l5.94-4.09l20.54,29.79c1.31,1.91,2.64,3.56,3.99,4.96c1.34,1.4,2.76,2.26,4.25,2.58c1.49,0.32,3.1-0.11,4.82-1.3
			c1.76-1.21,2.74-2.57,2.96-4.06c0.21-1.5-0.1-3.12-0.93-4.87c-0.83-1.75-1.9-3.58-3.22-5.49l-20.54-29.79l5.88-4.05l20.35,29.51
			c2.15,3.11,3.71,6.05,4.69,8.8c0.98,2.76,1.06,5.36,0.24,7.82C961.81,1045.43,959.79,1047.77,956.56,1050z"/>
		<path class="st0" d="M977.98,1033.59l-35.43-40.85l3.88-3.37l35.13,17.07l-23.53-27.13l4.74-4.11l35.43,40.85l-3.63,3.15
			l-35.94-17.7l24.19,27.89L977.98,1033.59z"/>
		<path class="st0" d="M1017.27,997.41c-2.61,2.8-5.21,4.44-7.83,4.89c-2.61,0.46-5.19,0.07-7.74-1.18c-2.55-1.24-5.05-3-7.49-5.27
			l-13.99-12.99c-2.67-2.48-4.72-4.95-6.15-7.4c-1.43-2.45-1.97-4.96-1.62-7.52c0.35-2.56,1.82-5.25,4.43-8.05
			c2.3-2.48,4.58-4.02,6.85-4.62c2.26-0.6,4.53-0.43,6.82,0.51c2.29,0.94,4.62,2.51,7,4.73l3.13,2.91l-4.86,5.23l-2.79-2.59
			c-1.47-1.36-2.83-2.49-4.09-3.39c-1.26-0.9-2.5-1.31-3.73-1.23c-1.23,0.08-2.55,0.88-3.97,2.41c-1.45,1.57-2.18,3.02-2.18,4.36
			c0,1.34,0.52,2.68,1.54,4.03c1.02,1.35,2.35,2.78,3.98,4.29l15.7,14.58c1.99,1.85,3.71,3.15,5.17,3.9
			c1.46,0.75,2.78,0.98,3.97,0.68c1.19-0.3,2.37-1.08,3.55-2.35c1.39-1.5,2.06-2.88,2-4.16c-0.06-1.27-0.61-2.54-1.63-3.79
			c-1.02-1.25-2.32-2.61-3.88-4.06l-2.93-2.73l4.86-5.23l2.93,2.73c2.41,2.24,4.27,4.51,5.57,6.81c1.3,2.3,1.79,4.64,1.49,7.03
			C1021.06,992.3,1019.69,994.8,1017.27,997.41z"/>
		<path class="st0" d="M1036.94,973.37l-38.52-29.41l-5.55,7.27l-4.46-3.4l15.52-20.32l4.46,3.4l-5.39,7.06l38.52,29.41
			L1036.94,973.37z"/>
		<path class="st0" d="M1051.96,952.65l-45.18-29.72l4.07-6.19l45.18,29.72L1051.96,952.65z"/>
		<path class="st0" d="M1070.05,923.95c-1.74,3.21-3.76,5.43-6.06,6.66c-2.29,1.23-4.83,1.63-7.6,1.18
			c-2.77-0.45-5.72-1.52-8.85-3.22l-18-9.8c-3.13-1.7-5.58-3.59-7.38-5.65c-1.79-2.06-2.76-4.37-2.92-6.91
			c-0.16-2.54,0.63-5.42,2.38-8.62c1.74-3.2,3.74-5.42,5.97-6.63c2.23-1.21,4.69-1.64,7.38-1.26c2.68,0.37,5.59,1.41,8.72,3.12
			l18.06,9.83c3.09,1.68,5.56,3.57,7.4,5.67c1.85,2.1,2.9,4.43,3.14,7C1072.54,917.86,1071.79,920.75,1070.05,923.95z
			 M1064.83,921.11c0.96-1.76,1.32-3.28,1.09-4.58c-0.23-1.29-0.92-2.45-2.06-3.48c-1.14-1.03-2.59-2.02-4.35-2.97l-20.81-11.34
			c-1.76-0.96-3.36-1.63-4.8-2.01c-1.44-0.38-2.75-0.3-3.92,0.22s-2.24,1.67-3.2,3.43c-0.96,1.76-1.35,3.28-1.16,4.57
			c0.18,1.29,0.83,2.44,1.93,3.44c1.1,1.01,2.53,1.99,4.29,2.94l20.81,11.34c1.76,0.96,3.38,1.64,4.86,2.04
			c1.48,0.4,2.83,0.34,4.05-0.19C1062.78,924.01,1063.87,922.87,1064.83,921.11z"/>
		<path class="st0" d="M1081.7,899.74l-50.06-20.43l1.94-4.76l39.05-0.64l-33.25-13.57l2.37-5.81l50.06,20.43l-1.82,4.45
			l-40.06,0.45l34.18,13.95L1081.7,899.74z"/>
		<path class="st0" d="M1095.22,865.43l-48.78-26.01l2.01-6.99l55.16,3.88l-1.98,6.86l-13.77-1.4l-3.05,10.59l12.36,6.27
			L1095.22,865.43z M1079.9,849.9l2.49-8.66l-24.67-2.39L1079.9,849.9z"/>
		<path class="st0" d="M1105.58,826.82l-53.13-10.04l1.4-7.41l47.82,9.04l2.57-13.58l5.31,1L1105.58,826.82z"/>
		<path class="st0" d="M1110.64,796.79l-53.7-6.35l0.87-7.36l53.7,6.35L1110.64,796.79z"/>
		<path class="st0" d="M1113.01,771.27l-48.41-2.32l-0.44,9.14l-5.6-0.27l1.22-25.54l5.6,0.27l-0.42,8.87l48.41,2.31L1113.01,771.27
			z"/>
		<path class="st0" d="M1113.4,737.2l-19.07,0.85l-34.43,13.22l-0.31-7l25.71-9.43l-26.44-6.98l-0.31-7.07l35.46,10.05l19.07-0.85
			L1113.4,737.2z"/>
	</g>
	<g>
		<g>
			<path class="st1" d="M814.76,853.23c-16.03,0-12.04,13.48-21.28,24.42c-7.92,9.38-18.09,9.72-20.83,9.62
				c-1.25-0.04-2.5-0.04-3.75-0.04H750h-18.9c-1.25,0-2.5,0-3.75,0.04c-2.74,0.09-12.91-0.25-20.83-9.62
				c-9.24-10.94-5.26-24.42-21.28-24.42c-16.03,0-16.28,11.19-16.28,11.19s-0.68,15.18-1.36,38.75c0,23.57,15.94,23.91,15.94,23.91
				c10.34-10.34,21.21,1.38,24.61,5.67c0.7,0.88,1.08,1.96,1.08,3.08v10.07C724.37,965.11,750,962.7,750,962.7
				s25.63,2.42,40.77-16.79v-10.07c0-1.12,0.38-2.2,1.08-3.08c3.4-4.29,14.27-16.01,24.61-5.67c0,0,15.94-0.34,15.94-23.91
				c-0.68-23.57-1.36-38.75-1.36-38.75S830.79,853.23,814.76,853.23z"/>
		</g>
		<g>
			<path class="st1" d="M761.77,794.69c0,0,12.53,17.3,12.53,27.66c0,9.16-6.87,8.71-6.87,8.71H750h-17.43c0,0-6.87,0.45-6.87-8.71
				c0-10.37,12.53-27.66,12.53-27.66H632.54c11.19,30.91,6.78,58.5,6.78,58.5l16.15,16.15c0,0,13.48-26.71,28.91-26.71
				c15.43,0,30.95,26.96,34.09,30.1c0.03,0.03,0.06,0.06,0.09,0.09c2.26,2.22,5.34,3.38,8.51,3.38H750h22.92
				c3.17,0,6.25-1.16,8.51-3.38c0.03-0.03,0.06-0.06,0.09-0.09c3.14-3.14,18.65-30.1,34.09-30.1c15.43,0,28.91,26.71,28.91,26.71
				l16.15-16.15c0,0-4.41-27.6,6.78-58.5H761.77z"/>
		</g>
		<g>
			<polygon class="st1" points="921.81,678.14 921.81,741.48 935.59,734.2 935.59,685.42 			"/>
		</g>
		<g>
			<path class="st1" d="M871.15,624.94c0,0-34.24-76.18-120.8-76.6v-0.01c-0.12,0-0.23,0-0.35,0c-0.12,0-0.23,0-0.35,0v0.01
				c-86.56,0.41-120.8,76.6-120.8,76.6H750H871.15z"/>
		</g>
		<g>
			<path class="st1" d="M583.7,657.79v104.04c0,12.06,9.78,21.83,21.83,21.83H750h144.47c12.06,0,21.83-9.78,21.83-21.83V657.79
				c0-12.06-9.78-21.83-21.83-21.83H750H605.53C593.48,635.96,583.7,645.74,583.7,657.79z"/>
		</g>
		<g>
			<polygon class="st1" points="564.41,734.2 578.19,741.48 578.19,678.14 564.41,685.42 			"/>
		</g>
	</g>
	<g>
		<polygon class="st0" points="452.57,592.19 449.99,618.13 473.86,628.6 448.39,634.16 445.8,660.1 432.65,637.59 407.18,643.15 
			424.52,623.68 411.36,601.18 435.23,611.65 		"/>
	</g>
	<g>
		<polygon class="st0" points="1047.43,592.19 1050.01,618.13 1026.14,628.6 1051.61,634.16 1054.2,660.1 1067.35,637.59 
			1092.82,643.15 1075.48,623.68 1088.64,601.18 1064.77,611.65 		"/>
	</g>
</g>
</svg>
